<svg id="Layer_1" enable-background="new 0 0 32 32" viewBox="0 0 32 32" xmlns="http://www.w3.org/2000/svg"><path d="m5.017 19.941c.52-.186.791-.758.605-1.278-.413-1.154-.622-2.384-.622-3.653 0-.61.052-1.23.156-1.843.092-.545-.275-1.061-.819-1.153-.547-.089-1.061.275-1.152.819-.123.723-.185 1.455-.185 2.177 0 1.5.249 2.955.738 4.327.188.524.765.789 1.279.604z"/><path d="m27.664 12.014c-.544.093-.912.608-.819 1.153.103.612.155 1.232.155 1.843 0 1.27-.209 2.499-.622 3.653-.186.521.085 1.093.605 1.278.513.185 1.09-.08 1.278-.604.49-1.372.739-2.827.739-4.327 0-.722-.062-1.454-.184-2.177-.091-.544-.611-.908-1.152-.819z"/><path d="m9.868 22.897-1.701 2.558c-.306.46-.181 1.081.279 1.387.459.305 1.08.181 1.387-.279l1.73-2.602c1.387.686 2.898 1.038 4.413 1.041.012 0 .022.007.035.007.015 0 .027-.008.041-.008 1.505-.008 3.007-.358 4.385-1.04l1.73 2.602c.306.46.928.584 1.387.279.46-.306.585-.927.279-1.387l-1.701-2.558c3.741-2.911 4.828-7.856 2.998-11.957.56-.65.88-1.458.88-2.325 0-.962-.379-1.871-1.066-2.559-1.34-1.34-3.469-1.388-4.885-.175-1.277-.566-2.646-.86-4.019-.866-.011 0-.019-.006-.03-.006-.008 0-.015.005-.024.005-1.377.002-2.751.295-4.033.861-1.415-1.206-3.54-1.156-4.877.181-.686.687-1.065 1.596-1.065 2.558 0 .862.317 1.666.866 2.31-.569 1.269-.877 2.652-.877 4.085 0 3.043 1.351 5.929 3.868 7.888zm11.789-2.232c-1.306 1.306-2.956 2.058-4.661 2.27-.04-.516-.459-.926-.985-.926-.527 0-.948.411-.986.929-1.712-.209-3.37-.961-4.682-2.273-1.275-1.275-2.06-2.906-2.276-4.668.524-.031.943-.456.943-.989s-.419-.958-.943-.989c.115-.935.389-1.833.815-2.66.067-.089.122-.182.156-.284.353-.623.786-1.205 1.306-1.724.539-.539 1.14-.979 1.776-1.332.076-.026.142-.073.211-.118.851-.439 1.765-.71 2.695-.823.038.518.458.93.986.93.526 0 .946-.41.985-.927.961.12 1.903.408 2.777.874.033.019.061.045.096.059.64.354 1.244.795 1.787 1.338.535.535.98 1.134 1.338 1.777.016.043.048.078.07.119.459.859.749 1.798.868 2.777-.514.041-.923.459-.923.984s.408.943.923.984c-.215 1.763-1 3.396-2.276 4.672zm1.873-13.195c.31.31.48.717.48 1.145 0 .124-.018.245-.046.363-.275-.362-.567-.713-.894-1.04-.328-.328-.678-.618-1.037-.891.522-.12 1.092.018 1.497.423zm-15.519 1.144c0-.428.171-.835.48-1.145.402-.4.965-.541 1.482-.427-.361.274-.714.566-1.044.896-.321.321-.608.665-.879 1.02-.024-.113-.039-.227-.039-.344z"/><path d="m17.936 15.52c.044-.164.075-.334.075-.511 0-.737-.405-1.375-1-1.722v-3.278c0-.553-.448-1-1-1s-1 .447-1 1v3.278c-.595.347-1 .985-1 1.722 0 1.103.897 2 2 2 .178 0 .347-.031.511-.075l2.782 2.782c.195.195.451.293.707.293s.512-.098.707-.293c.391-.391.391-1.023 0-1.414z"/></svg>
