<svg id="Layer_1" viewBox="0 0 24 24" xmlns="http://www.w3.org/2000/svg" data-name="Layer 1"><path d="m2.992 16.7a3.608 3.608 0 0 0 3.83 3.3h1.178a4 4 0 0 0 8 0h1.162a3.608 3.608 0 0 0 3.83-3.3 3.054 3.054 0 0 0 -.363-1.407 5.065 5.065 0 0 1 -.544-2.919 6.707 6.707 0 0 0 -1.478-5.574 8.232 8.232 0 0 0 -3.955-2.422 2.965 2.965 0 0 0 .348-1.378 3 3 0 0 0 -6 0 2.956 2.956 0 0 0 .346 1.369 8.246 8.246 0 0 0 -3.969 2.431 6.727 6.727 0 0 0 -1.477 5.569 5.067 5.067 0 0 1 -.543 2.922 3.051 3.051 0 0 0 -.365 1.409zm9.008 5.3a2 2 0 0 1 -2-2h4a2 2 0 0 1 -2 2zm0-20a1 1 0 1 1 -1 1 1 1 0 0 1 1-1zm-6.865 14.207a7.088 7.088 0 0 0 .751-4.075 4.694 4.694 0 0 1 .99-4.013 6.864 6.864 0 0 1 5.116-2.119 6.864 6.864 0 0 1 5.116 2.119 4.726 4.726 0 0 1 .991 4.016 7.068 7.068 0 0 0 .752 4.072c.563 1.093-.79 1.793-1.689 1.793h-10.34c-.903 0-2.253-.706-1.687-1.793z"/></svg>
