<svg class='shortcut' style='fill:#000000;' id="Layer_1" viewBox="0 0 24 24" xmlns="http://www.w3.org/2000/svg" data-name="Layer 1"><path d="m21 3h-1a3 3 0 0 0 -6 0h-4a3 3 0 0 0 -6 0h-1a3 3 0 0 0 -3 3v15a3 3 0 0 0 3 3h18a3 3 0 0 0 3-3v-15a3 3 0 0 0 -3-3zm-18 2h1a3 3 0 0 0 3 3 1 1 0 0 0 0-2 1 1 0 0 1 -1-1v-2a1 1 0 0 1 2 0v1a1 1 0 0 0 1 1h5a3 3 0 0 0 3 3 1 1 0 0 0 0-2 1 1 0 0 1 -1-1v-2a1 1 0 0 1 2 0v1a1 1 0 0 0 1 1h2a1 1 0 0 1 1 1v4h-20v-4a1 1 0 0 1 1-1zm18 17h-18a1 1 0 0 1 -1-1v-9h20v9a1 1 0 0 1 -1 1z"/><circle cx="12" cy="15" r="1"/><circle cx="18" cy="15" r="1"/><circle cx="6" cy="15" r="1"/><circle cx="12" cy="19" r="1"/><circle cx="18" cy="19" r="1"/><circle cx="6" cy="19" r="1"/></svg>
