<svg class='shortcut' style='fill:#000000;' version="1.1" id="Layer_1" xmlns="http://www.w3.org/2000/svg" xmlns:xlink="http://www.w3.org/1999/xlink" x="0px" y="0px" viewBox="0 0 512 512" xml:space="preserve"> <g> <g> <path d="M512,238.933c0-35.223-24.751-64.775-57.776-72.173C446.63,101.788,391.245,51.2,324.267,51.2 c-28.818,0-56.153,9.189-79.052,26.572c-19.321,14.667-34.344,34.714-43.057,57.214 c-68.403,15.633-120.752,73.892-127.472,145.237C32.265,287.943,0,325.163,0,369.778c0,50.19,40.833,91.022,91.022,91.022h295.822 c50.19,0,91.022-40.833,91.022-91.022c0-22.543-8.245-43.189-21.868-59.104C488.129,302.63,512,273.522,512,238.933z M386.844,426.667H91.022c-31.369,0-56.889-25.52-56.889-56.889s25.52-56.889,56.889-56.889h17.067v-17.067 c0-72.148,58.697-130.844,130.844-130.844s130.844,58.697,130.844,130.844v17.067h17.067c31.369,0,56.889,25.52,56.889,56.889 S418.213,426.667,386.844,426.667z M438.044,278.756h-35.021c-8.455-81.907-77.073-146.22-160.79-147.871 c17.397-27.683,48.315-45.551,82.033-45.551c53.326,0,96.711,43.385,96.711,96.711v17.067h17.067 c21.958,0,39.822,17.864,39.822,39.822C477.867,260.891,460.002,278.756,438.044,278.756z"/> </g> </g> </svg>
