<svg class='shortcut' style='fill:#000000;' id="Layer_1" viewBox="0 0 24 24" xmlns="http://www.w3.org/2000/svg" data-name="Layer 1"><path d="m23 3h-14.184a2.982 2.982 0 0 0 -5.632 0h-2.184a1 1 0 0 0 0 2h2.184a2.982 2.982 0 0 0 5.632 0h14.184a1 1 0 0 0 0-2zm-17 2a1 1 0 1 1 1-1 1 1 0 0 1 -1 1z"/><path d="m23 11h-8.184a2.982 2.982 0 0 0 -5.632 0h-8.184a1 1 0 0 0 0 2h8.184a2.982 2.982 0 0 0 5.632 0h8.184a1 1 0 0 0 0-2zm-11 2a1 1 0 1 1 1-1 1 1 0 0 1 -1 1z"/><path d="m23 19h-3.184a2.982 2.982 0 0 0 -5.632 0h-13.184a1 1 0 0 0 0 2h13.184a2.982 2.982 0 0 0 5.632 0h3.184a1 1 0 0 0 0-2zm-6 2a1 1 0 1 1 1-1 1 1 0 0 1 -1 1z"/></svg>
