<svg class='shortcut' style='fill:#000000;' xmlns="http://www.w3.org/2000/svg" id="Layer_1" data-name="Layer 1" viewBox="0 0 24 24" height="512"><path d="M12,0a11.994,11.994,0,1,0,8.509,3.535A11.921,11.921,0,0,0,12,0Zm2.263,5.807A13.449,13.449,0,0,1,12,6a13.449,13.449,0,0,1-2.263-.193C10.371,3.411,11.292,2,12,2S13.629,3.411,14.263,5.807Zm.913-3.286a9.9,9.9,0,0,1,3.113,1.705A8.2,8.2,0,0,1,16.207,5.3,13.45,13.45,0,0,0,15.176,2.521ZM9.019,11a26.13,26.13,0,0,1,.3-3.233A15.436,15.436,0,0,0,12,8a15.436,15.436,0,0,0,2.676-.233,26.13,26.13,0,0,1,.3,3.233Zm5.962,2a26.13,26.13,0,0,1-.3,3.233,15.483,15.483,0,0,0-5.352,0A26.13,26.13,0,0,1,9.019,13ZM7.793,5.3A8.2,8.2,0,0,1,5.711,4.226a9.9,9.9,0,0,1,3.113-1.7A13.45,13.45,0,0,0,7.793,5.3ZM7.378,7.273A28.617,28.617,0,0,0,7.018,11H2.049A9.9,9.9,0,0,1,4.272,5.652,10.182,10.182,0,0,0,7.378,7.273ZM7.018,13a28.617,28.617,0,0,0,.36,3.727,10.18,10.18,0,0,0-3.1,1.617A9.952,9.952,0,0,1,2.051,13Zm.775,5.7a13.449,13.449,0,0,0,1.029,2.777,9.978,9.978,0,0,1-3.1-1.7A8.209,8.209,0,0,1,7.793,18.7Zm1.944-.5a13.364,13.364,0,0,1,4.526,0C13.629,20.589,12.708,22,12,22S10.371,20.589,9.737,18.193Zm6.47.5a8.209,8.209,0,0,1,2.075,1.074,9.978,9.978,0,0,1-3.1,1.7A13.449,13.449,0,0,0,16.207,18.7Zm.415-1.969A28.617,28.617,0,0,0,16.982,13h4.967a9.952,9.952,0,0,1-2.226,5.344A10.18,10.18,0,0,0,16.622,16.727ZM16.982,11a28.617,28.617,0,0,0-.36-3.727,10.182,10.182,0,0,0,3.106-1.621A9.9,9.9,0,0,1,21.951,11Z"/></svg>
