<svg id="Layer_1" enable-background="new 0 0 32 32" viewBox="0 0 32 32" xmlns="http://www.w3.org/2000/svg"><path d="m27 5h-10v-1c0-.553-.447-1-1-1s-1 .447-1 1v1h-10c-.553 0-1 .447-1 1v13 3c0 .553.447 1 1 1h10v2.28l-5.316 1.772c-.523.174-.807.74-.632 1.265.174.521.738.808 1.265.632l5.673-1.891 5.673 1.891c.527.176 1.091-.111 1.265-.632.175-.524-.108-1.091-.632-1.265l-5.296-1.765v-2.287h10c.553 0 1-.447 1-1v-3-13c0-.553-.447-1-1-1zm-21 2h20v11h-20zm20 14h-20v-1h20z"/><path d="m10 12c-.553 0-1 .447-1 1v3c0 .553.447 1 1 1s1-.447 1-1v-3c0-.553-.447-1-1-1z"/><path d="m14 10c-.553 0-1 .447-1 1v5c0 .553.447 1 1 1s1-.447 1-1v-5c0-.553-.447-1-1-1z"/><path d="m18 8c-.553 0-1 .447-1 1v7c0 .553.447 1 1 1s1-.447 1-1v-7c0-.553-.447-1-1-1z"/><path d="m22 8c-.553 0-1 .447-1 1v7c0 .553.447 1 1 1s1-.447 1-1v-7c0-.553-.447-1-1-1z"/></svg>
