<svg class='shortcut' style='fill:#000000;' id="Layer_1" viewBox="0 0 24 24" xmlns="http://www.w3.org/2000/svg" data-name="Layer 1"><path d="m23.989.859a1.048 1.048 0 0 0 -1.131-.849l-14 2a1.056 1.056 0 0 0 -.858.99v13.82a5.8 5.8 0 0 0 -3-.82c-2.757 0-5 1.794-5 4s2.243 4 5 4 5-1.794 5-4v-12.132l12-1.715v8.667a5.8 5.8 0 0 0 -3-.82c-2.757 0-5 1.794-5 4s2.243 4 5 4 5-1.794 5-4v-17a.936.936 0 0 0 -.011-.141zm-18.989 21.141c-1.626 0-3-.916-3-2s1.374-2 3-2 3 .916 3 2-1.374 2-3 2zm5-16.153v-1.979l12-1.715v1.979zm9 14.153c-1.626 0-3-.916-3-2s1.374-2 3-2 3 .916 3 2-1.374 2-3 2z"/></svg>
