<svg xmlns="http://www.w3.org/2000/svg" id="Layer_1" data-name="Layer 1" viewBox="0 0 24 24" height="512"><path d="M2,13.444V20a2.922,2.922,0,0,0,.874,2.108A2.944,2.944,0,0,0,5,23a3,3,0,0,0,3-3V16.055l4.47,2.793A1,1,0,0,0,14,18V14a4,4,0,0,0,0-8V2a1,1,0,0,0-1.53-.848L4.713,6H4a3.987,3.987,0,0,0-2,7.444ZM6,20a1,1,0,0,1-1,1,.978.978,0,0,1-.713-.306A.965.965,0,0,1,4,20V14h.713l1.287.8ZM16,10a2,2,0,0,1-2,2V8A2,2,0,0,1,16,10ZM12,7v9.2l-6-3.75V7.554L12,3.8ZM4,8v4A2,2,0,0,1,4,8Z"/><path d="M23,9H21a1,1,0,0,0,0,2h2a1,1,0,0,0,0-2Z"/><path d="M21,7a1,1,0,0,0,.707-.293l1-1a1,1,0,1,0-1.414-1.414l-1,1A1,1,0,0,0,21,7Z"/><path d="M22,16a1,1,0,0,0,.707-1.707l-1-1a1,1,0,0,0-1.414,1.414l1,1A1,1,0,0,0,22,16Z"/></svg>
