<svg class='shortcut' style='fill:#000000;' id="Layer_1" viewBox="0 0 24 24" xmlns="http://www.w3.org/2000/svg" data-name="Layer 1"><path d="m22.7 9.324-1.2-.455a9.542 9.542 0 0 0 -.569-1.37l.536-1.181a2.011 2.011 0 0 0 -.406-2.235l-1.156-1.152a2.007 2.007 0 0 0 -2.228-.391l-1.177.533a9.706 9.706 0 0 0 -1.37-.569l-.45-1.193a1.993 1.993 0 0 0 -1.87-1.311h-1.62a1.989 1.989 0 0 0 -1.866 1.3l-.455 1.2a9.706 9.706 0 0 0 -1.37.569l-1.18-.535a2.01 2.01 0 0 0 -2.236.405l-1.151 1.161a2.005 2.005 0 0 0 -.392 2.224l.533 1.176a9.542 9.542 0 0 0 -.573 1.369l-1.192.449a1.991 1.991 0 0 0 -1.308 1.872v1.62a1.984 1.984 0 0 0 1.3 1.866l1.206.455a9.542 9.542 0 0 0 .569 1.37l-.536 1.181a2.011 2.011 0 0 0 .406 2.235l1.155 1.152a2.006 2.006 0 0 0 2.228.391l1.172-.533a9.706 9.706 0 0 0 1.37.569l.45 1.193a1.993 1.993 0 0 0 1.87 1.311h1.62a1.989 1.989 0 0 0 1.866-1.3l.455-1.207a9.706 9.706 0 0 0 1.37-.569l1.181.536a2.008 2.008 0 0 0 2.235-.406l1.151-1.152a2.006 2.006 0 0 0 .392-2.229l-.533-1.173a9.542 9.542 0 0 0 .569-1.37l1.191-.449a1.991 1.991 0 0 0 1.313-1.871v-1.62a1.984 1.984 0 0 0 -1.3-1.866zm-.7 3.481-1.67.63c-.892.424-.775 1.8-1.38 2.519-.451.645.408 1.75.7 2.549l-1.15 1.136-1.63-.74c-.974-.321-1.778.714-2.764.816-.764.144-.933 1.5-1.3 2.285h-1.606l-.63-1.67c-.426-.891-1.8-.777-2.521-1.38-.644-.449-1.743.405-2.547.7l-1.142-1.15.74-1.626c.327-.958-.715-1.781-.815-2.764-.144-.765-1.5-.934-2.286-1.3l.001-1.61 1.67-.63c.892-.424.775-1.8 1.38-2.519.45-.651-.405-1.751-.693-2.551l1.143-1.139 1.63.74c.974.321 1.778-.714 2.764-.816.764-.144.933-1.5 1.3-2.285h1.615c.367.782.543 2.139 1.3 2.282.986.1 1.791 1.138 2.764.816l1.63-.744 1.137 1.146-.74 1.626c-.327.958.715 1.781.815 2.764.143.763 1.5.937 2.286 1.3z"/><path d="m12 6a6 6 0 1 0 6 6 6.006 6.006 0 0 0 -6-6zm0 10a4 4 0 1 1 4-4 4 4 0 0 1 -4 4z"/></svg>
