<svg class='shortcut' style='fill:#000000;' id="Layer_1" enable-background="new 0 0 32 32" height="512" viewBox="0 0 32 32" width="512" xmlns="http://www.w3.org/2000/svg"><path d="m23.161 10.865c.478-.276.642-.888.364-1.366-1.963-3.392-5.612-5.499-9.525-5.499-6.065 0-11 4.935-11 11 0 4.477 2.692 8.331 6.54 10.046l-1.247 1.247c-.391.391-.391 1.023 0 1.414.195.195.451.293.707.293s.512-.098.707-.293l1.961-1.961c.753.163 1.531.254 2.332.254.788 0 1.559-.107 2.315-.271l1.978 1.978c.195.195.451.293.707.293s.512-.098.707-.293c.391-.391.391-1.023 0-1.414l-1.255-1.255c2.093-.931 3.892-2.495 5.074-4.537.277-.479.113-1.09-.364-1.366-.481-.279-1.089-.113-1.366.364-1.608 2.776-4.595 4.501-7.796 4.501-4.963 0-9-4.037-9-9s4.037-9 9-9c3.201 0 6.188 1.725 7.795 4.501.277.477.885.643 1.366.364z"/><path d="m19.254 12.112c.268.484.873.658 1.358.394.483-.267.66-.875.394-1.358-1.408-2.559-4.093-4.148-7.006-4.148-4.411 0-8 3.589-8 8s3.589 8 8 8c2.913 0 5.598-1.589 7.006-4.147.267-.483.09-1.092-.394-1.358-.485-.265-1.091-.091-1.358.394-1.057 1.919-3.07 3.111-5.254 3.111-3.309 0-6-2.691-6-6s2.691-6 6-6c2.184 0 4.197 1.192 5.254 3.112z"/><path d="m14 12c.722 0 1.426.268 1.981.753.418.365 1.049.321 1.411-.095.363-.416.321-1.048-.095-1.411-.92-.805-2.091-1.247-3.297-1.247-2.757 0-5 2.243-5 5s2.243 5 5 5c1.206 0 2.377-.442 3.298-1.247.416-.363.458-.995.095-1.411s-.994-.459-1.411-.095c-.556.485-1.26.753-1.982.753-1.654 0-3-1.346-3-3s1.346-3 3-3z"/><path d="m28.924 12.617c-.154-.374-.52-.617-.924-.617h-5c-.266 0-.52.105-.707.293l-1.707 1.707h-6.586c-.553 0-1 .447-1 1s.447 1 1 1h6.586l1.707 1.707c.187.188.441.293.707.293h5c.404 0 .77-.243.924-.617.155-.374.069-.804-.217-1.09l-1.293-1.293 1.293-1.293c.286-.286.372-.716.217-1.09zm-3.631 3.09.293.293h-2.172l-1-1 1-1h2.172l-.293.293c-.391.391-.391 1.023 0 1.414z"/></svg>