<svg id="Layer_1" viewBox="0 0 24 24" xmlns="http://www.w3.org/2000/svg" data-name="Layer 1"><path d="m15 0h-6a3 3 0 0 0 -3 3v1h-4a1 1 0 0 0 0 2h1.054l.846 15.167a3 3 0 0 0 3 2.833h10.208a3 3 0 0 0 3-2.833l.838-15.167h1.054a1 1 0 0 0 0-2h-4v-1a3 3 0 0 0 -3-3zm-7 3a1 1 0 0 1 1-1h6a1 1 0 0 1 1 1v1h-8zm10.106 18.056a1 1 0 0 1 -1 .944h-10.214a1 1 0 0 1 -1-.944l-.835-15.056h13.886z"/><path d="m12 10a1 1 0 0 0 -1 1v6a1 1 0 0 0 2 0v-6a1 1 0 0 0 -1-1z"/><path d="m16 10a1 1 0 0 0 -1 1v6a1 1 0 0 0 2 0v-6a1 1 0 0 0 -1-1z"/><path d="m8 10a1 1 0 0 0 -1 1v6a1 1 0 0 0 2 0v-6a1 1 0 0 0 -1-1z"/></svg>
